<?xml version="1.0" standalone="no"?>
<!DOCTYPE svg PUBLIC "-//W3C//DTD SVG 20010904//EN"
 "http://www.w3.org/TR/2001/REC-SVG-20010904/DTD/svg10.dtd">
<svg version="1.0" xmlns="http://www.w3.org/2000/svg"
 width="2000.000000pt" height="2000.000000pt" viewBox="0 0 2000.000000 2000.000000"
 preserveAspectRatio="xMidYMid meet">
<metadata>
Created by potrace 1.14, written by Peter Selinger 2001-2017
</metadata>
<g transform="translate(0.000000,2000.000000) scale(0.100000,-0.100000)"
fill="#000000" stroke="none">
<path d="M8069 15396 c-2 -2 -29 -6 -59 -9 -225 -25 -472 -149 -651 -329 -106
-106 -172 -208 -256 -398 -29 -63 -84 -187 -123 -275 -39 -88 -77 -173 -85
-190 -7 -16 -52 -118 -100 -225 -48 -107 -97 -217 -110 -245 -45 -100 -64
-144 -145 -325 -45 -102 -90 -204 -101 -227 -10 -24 -28 -62 -38 -85 -11 -24
-104 -232 -206 -463 -193 -433 -302 -676 -337 -755 -12 -25 -44 -99 -73 -165
-29 -66 -64 -145 -78 -175 -14 -30 -101 -224 -192 -430 -91 -206 -175 -395
-187 -420 -11 -25 -29 -63 -38 -85 -10 -22 -30 -67 -44 -100 -37 -81 -42 -94
-59 -140 -22 -60 -66 -215 -72 -255 -7 -41 -16 -97 -21 -125 -2 -11 -7 -60
-11 -110 -23 -316 38 -636 177 -922 92 -188 183 -316 344 -479 148 -151 301
-261 489 -353 90 -43 271 -110 339 -125 99 -23 134 -29 218 -41 106 -14 349
-17 425 -5 28 4 73 11 100 14 67 9 228 50 317 82 288 103 588 312 767 534 20
25 42 52 50 60 30 31 135 199 177 283 98 194 168 425 189 622 4 45 9 83 20
155 3 14 11 79 20 145 8 66 17 131 20 145 2 14 7 50 10 80 3 30 8 69 12 85 3
17 7 41 8 55 2 14 6 54 10 90 4 36 9 68 11 71 2 3 6 33 9 65 9 85 24 183 36
229 6 22 12 47 14 55 9 47 62 187 101 266 162 332 470 603 819 719 88 30 81
28 180 50 223 49 508 31 735 -45 66 -22 263 -115 312 -147 44 -29 112 -77 124
-88 6 -5 35 -30 64 -55 44 -38 129 -129 190 -206 146 -182 247 -444 285 -734
9 -69 18 -136 20 -150 2 -14 6 -47 10 -75 4 -27 8 -61 10 -75 4 -21 43 -313
60 -445 3 -22 8 -58 11 -80 8 -52 10 -68 19 -140 48 -386 234 -764 510 -1040
100 -100 113 -112 217 -188 110 -80 162 -111 288 -170 163 -77 287 -118 470
-152 106 -21 406 -27 525 -12 610 77 1136 454 1403 1007 86 178 148 393 171
596 8 78 7 355 -3 404 -3 14 -7 43 -11 64 -23 160 -70 307 -164 523 -74 169
-308 694 -438 983 -14 30 -50 111 -80 180 -31 69 -67 150 -80 180 -14 30 -41
91 -60 135 -20 44 -47 105 -60 135 -14 30 -63 141 -110 245 -46 105 -91 204
-98 220 -8 17 -44 98 -80 180 -37 83 -75 168 -85 190 -10 22 -46 103 -80 180
-34 77 -72 163 -85 190 -12 28 -76 172 -143 320 -66 149 -131 295 -145 325
-13 30 -40 91 -60 135 -19 44 -46 105 -60 135 -13 30 -61 136 -105 235 -124
278 -137 305 -193 390 -93 144 -281 310 -428 380 -198 95 -341 125 -566 120
-77 -1 -160 -7 -185 -13 -25 -6 -56 -13 -70 -15 -255 -47 -533 -208 -720 -417
-183 -204 -299 -298 -473 -382 -118 -57 -241 -96 -364 -114 -26 -3 -57 -8 -68
-10 -31 -6 -205 -6 -250 1 -140 20 -191 31 -284 62 -223 74 -391 186 -562 374
-115 127 -126 138 -194 196 -189 160 -424 267 -680 308 -44 7 -310 16 -316 11z
m337 -280 c216 -47 411 -153 563 -307 113 -114 185 -224 248 -379 18 -47 46
-103 61 -124 40 -58 130 -113 200 -122 31 -4 380 -7 777 -6 790 0 773 -1 855
60 64 48 85 81 138 212 56 141 133 254 252 371 172 169 391 277 625 307 107
14 286 6 375 -17 74 -19 207 -76 264 -114 78 -50 221 -196 265 -271 19 -31
153 -324 298 -649 145 -326 270 -605 277 -622 8 -16 53 -118 101 -225 47 -107
94 -213 104 -235 10 -22 112 -249 226 -505 114 -256 216 -485 227 -510 26 -56
305 -683 325 -728 11 -26 11 -32 1 -26 -7 4 -38 24 -68 43 -69 44 -276 142
-357 170 -71 24 -202 58 -253 66 -19 3 -46 7 -60 10 -148 27 -361 27 -553 1
-53 -8 -238 -52 -297 -72 -437 -147 -814 -472 -1028 -887 l-41 -78 -10 38 c-6
21 -13 54 -16 73 -3 19 -38 184 -76 365 -39 182 -88 413 -110 515 -21 102 -48
228 -59 280 -11 52 -22 104 -24 115 -3 11 -9 40 -15 65 -5 25 -13 60 -16 79
-3 19 -7 37 -9 40 -2 3 -7 22 -10 41 -3 19 -8 46 -11 60 -3 14 -7 34 -9 45 -2
11 -7 31 -10 45 -13 55 -79 371 -96 455 -10 50 -25 120 -34 156 -8 37 -17 78
-20 90 -19 101 -78 380 -87 412 -8 31 -14 38 -32 35 -15 -2 -22 -9 -21 -23 3
-38 15 -130 19 -145 2 -8 7 -44 10 -80 3 -36 8 -72 10 -80 2 -8 7 -39 10 -69
4 -30 8 -61 10 -70 1 -9 6 -41 9 -72 4 -31 8 -65 10 -75 2 -11 7 -44 10 -75 4
-31 8 -65 10 -75 2 -11 7 -48 11 -84 4 -36 8 -67 10 -70 2 -3 6 -32 9 -66 4
-33 8 -71 11 -85 2 -13 9 -62 15 -109 7 -47 13 -94 15 -105 1 -11 6 -47 10
-80 4 -33 9 -69 11 -80 3 -11 7 -43 10 -71 2 -28 6 -60 8 -71 3 -11 7 -44 11
-74 6 -50 8 -65 19 -136 3 -16 8 -55 11 -87 3 -33 9 -64 12 -70 4 -6 -38 34
-93 90 -191 194 -415 335 -669 420 -182 60 -347 86 -546 85 -347 -2 -677 -105
-952 -298 -108 -75 -118 -84 -235 -200 -85 -84 -102 -97 -98 -75 3 15 8 54 12
87 4 33 8 67 9 76 2 9 6 40 10 70 3 30 10 79 15 109 5 30 11 78 15 105 3 28 7
61 10 75 2 14 7 48 10 75 3 28 7 61 10 75 2 14 7 48 10 75 4 28 8 66 11 85 2
19 6 46 9 60 3 14 7 45 10 70 5 40 29 225 40 305 2 17 9 68 15 115 6 47 13 96
15 110 2 14 7 48 10 75 4 28 8 61 10 75 2 14 7 48 11 75 3 28 8 58 10 68 2 11
6 45 10 78 6 50 4 60 -10 65 -20 8 -35 -4 -41 -32 -11 -54 -46 -219 -49 -238
-3 -11 -28 -129 -56 -261 -28 -132 -54 -251 -56 -265 -9 -43 -43 -207 -84
-395 -22 -99 -41 -191 -44 -205 -6 -33 -68 -324 -100 -473 -14 -65 -28 -133
-32 -150 -3 -18 -37 -178 -75 -356 -38 -178 -72 -338 -75 -355 -3 -17 -13 -65
-23 -106 l-18 -75 -16 40 c-9 22 -21 47 -26 55 -5 8 -30 49 -54 91 -202 340
-540 622 -917 762 -89 33 -261 79 -340 92 -167 26 -430 25 -575 -1 -28 -5
-157 -32 -180 -38 -150 -37 -355 -128 -497 -219 -59 -38 -78 -46 -60 -24 5 6
21 39 35 72 14 33 44 100 66 148 23 49 41 91 41 93 0 3 14 36 31 72 17 37 46
101 64 142 18 41 55 125 83 185 27 61 158 355 291 655 134 300 253 568 266
595 13 28 68 151 123 275 55 124 109 245 120 270 11 25 40 90 65 145 43 95 58
129 106 238 11 26 30 66 40 90 11 23 56 125 101 227 97 220 138 298 193 365
144 176 321 280 540 320 91 17 288 12 383 -9z m-1346 -3850 c120 -13 304 -60
398 -102 239 -105 394 -212 552 -382 472 -504 547 -1271 182 -1859 -167 -270
-406 -476 -702 -606 -204 -90 -397 -127 -640 -122 -85 2 -164 5 -175 8 -11 2
-40 8 -65 12 -66 11 -71 12 -120 25 -259 67 -550 239 -721 425 -79 86 -101
113 -159 197 -110 158 -209 389 -239 553 -6 33 -13 69 -15 80 -17 89 -23 287
-11 385 6 53 8 65 20 140 3 19 15 69 26 110 164 616 688 1064 1329 1138 76 9
248 8 340 -2z m6700 -1 c177 -22 324 -66 495 -151 157 -77 276 -161 398 -280
229 -225 389 -529 442 -844 19 -110 25 -327 12 -435 -61 -516 -383 -974 -842
-1199 -246 -121 -422 -161 -695 -161 -174 0 -230 7 -377 45 -422 109 -766 377
-976 760 -32 59 -103 222 -112 260 -3 8 -13 49 -24 90 -37 138 -46 217 -46
385 1 121 6 197 20 270 95 492 396 890 840 1113 76 38 258 105 318 117 15 3
39 8 55 11 129 27 356 36 492 19z"/>
<path d="M6807 10764 c-1 -1 -26 -5 -55 -8 -283 -34 -539 -188 -714 -431 -59
-83 -90 -141 -125 -237 -75 -210 -82 -444 -18 -654 60 -198 191 -390 344 -507
31 -23 58 -45 59 -49 2 -5 8 -8 13 -8 5 0 27 -11 48 -25 57 -38 196 -94 291
-117 131 -33 340 -30 479 5 463 117 784 530 782 1005 -1 97 -2 110 -22 212
-47 236 -206 477 -410 623 -129 91 -316 165 -464 183 -54 6 -203 12 -208 8z
m-440 -464 c56 -33 71 -90 42 -156 -19 -45 -54 -166 -64 -224 -13 -71 -13
-286 0 -365 7 -44 27 -122 44 -174 39 -117 41 -130 26 -161 -30 -58 -91 -87
-141 -65 -91 41 -212 226 -253 390 -24 95 -30 211 -16 304 19 127 84 269 171
374 80 98 127 117 191 77z"/>
<path d="M13455 10758 c-273 -31 -534 -182 -706 -408 -95 -124 -178 -328 -196
-480 -9 -71 -8 -222 0 -281 56 -377 315 -696 671 -825 85 -31 89 -32 191 -49
77 -12 267 -12 330 0 71 14 184 48 240 73 60 26 175 90 185 101 3 4 24 22 48
40 300 234 438 616 367 1016 -10 56 -57 190 -88 250 -198 387 -613 611 -1042
563z m-370 -478 c38 -38 37 -85 -3 -200 -37 -105 -54 -214 -55 -340 0 -152 11
-226 55 -355 39 -118 42 -138 23 -174 -32 -63 -120 -80 -175 -35 -50 42 -120
141 -163 228 -102 208 -100 461 5 671 50 98 120 188 178 229 36 25 96 14 135
-24z"/>
<path d="M5987 6664 c-1 -1 -33 -4 -72 -7 -226 -18 -398 -95 -564 -252 -157
-149 -252 -333 -279 -540 -14 -106 -6 -277 18 -380 44 -190 172 -387 325 -502
361 -270 929 -246 1315 56 25 19 47 36 49 38 3 2 5 650 2 760 l-1 32 -390 0
c-355 -1 -390 -2 -391 -18 -1 -22 -1 -292 0 -312 1 -14 24 -16 199 -15 l199 1
0 -128 0 -129 -41 -26 c-78 -50 -170 -74 -296 -78 -189 -6 -299 33 -415 150
-83 84 -126 164 -150 280 -43 211 15 414 157 554 66 65 98 86 165 112 70 26
104 32 188 32 159 0 268 -37 402 -135 l62 -46 125 152 126 152 -22 18 c-159
127 -351 206 -538 222 -95 8 -170 12 -173 9z"/>
<path d="M18538 6665 c-2 -2 -41 -6 -87 -9 -155 -13 -339 -82 -462 -173 -201
-149 -344 -385 -374 -618 -7 -54 -8 -237 -1 -270 2 -11 7 -40 11 -64 49 -294
309 -588 606 -685 249 -80 562 -62 774 46 182 92 340 249 427 423 122 244 123
583 3 825 -52 106 -90 157 -190 255 -161 159 -346 243 -567 261 -40 3 -88 7
-105 8 -18 2 -34 2 -35 1z m113 -379 c165 -17 328 -141 404 -309 84 -184 62
-444 -49 -590 -107 -141 -233 -211 -398 -220 -193 -11 -352 59 -464 204 -217
283 -127 719 181 870 69 34 186 59 250 53 17 -2 50 -5 76 -8z"/>
<path d="M3580 6630 c-4 -8 -85 -197 -180 -420 -94 -223 -178 -418 -185 -435
-8 -16 -59 -138 -115 -270 -56 -132 -110 -258 -119 -280 -10 -22 -46 -107 -81
-190 -34 -82 -68 -162 -76 -177 l-15 -28 53 -1 c167 -3 352 1 358 8 5 4 43 95
86 201 l77 192 381 0 381 0 37 -93 c56 -139 122 -301 125 -306 2 -3 314 -4
396 -2 20 1 18 15 -14 86 -10 22 -88 207 -175 410 -180 426 -348 821 -474
1115 l-87 205 -182 0 c-153 0 -184 -2 -191 -15z m312 -780 c55 -135 102 -250
105 -256 3 -8 -66 -11 -232 -11 -129 -1 -235 1 -235 3 0 2 46 115 101 252 56
136 109 264 117 285 l15 38 14 -33 c8 -18 60 -143 115 -278z"/>
<path d="M13720 6635 c-5 -6 -13 -22 -18 -35 -13 -34 -349 -824 -372 -875 -10
-22 -30 -69 -45 -105 -37 -89 -253 -598 -270 -635 -7 -16 -25 -57 -39 -89 -15
-32 -24 -61 -22 -63 2 -3 76 -5 163 -5 265 0 238 -4 258 45 9 23 22 53 28 67
5 14 11 30 13 35 2 6 25 64 53 130 l50 120 381 0 382 0 35 -85 c106 -260 128
-310 137 -311 59 -3 398 -1 402 3 3 3 -4 25 -15 49 -11 24 -48 109 -82 189
-33 80 -67 159 -74 175 -8 17 -122 287 -255 600 -133 314 -264 622 -292 685
l-49 115 -180 0 c-113 0 -184 -4 -189 -10z m201 -522 c6 -21 20 -56 30 -78 34
-74 171 -410 176 -431 l5 -22 -235 0 -235 1 20 46 c11 25 23 55 28 66 5 11 19
45 30 75 11 30 25 64 30 75 10 22 76 181 106 257 10 27 22 48 26 48 3 0 12
-17 19 -37z"/>
<path d="M481 6630 c-4 -3 -7 -409 -7 -902 1 -892 1 -898 21 -899 24 -1 215
-1 305 0 l65 1 0 580 c0 318 3 576 6 572 10 -12 154 -226 158 -236 2 -6 48
-75 101 -155 53 -81 127 -192 163 -248 36 -55 70 -104 75 -107 5 -3 56 65 113
152 342 519 399 605 400 596 0 -5 1 -267 1 -581 l1 -573 36 -1 c39 -1 262 -1
324 0 l37 1 -2 901 -3 901 -210 1 -210 0 -36 -54 c-36 -53 -278 -442 -381
-611 -29 -48 -56 -88 -59 -88 -4 0 -28 35 -55 78 -26 42 -62 100 -79 127 -41
64 -250 400 -300 483 l-38 62 -76 1 c-42 0 -136 1 -209 2 -74 1 -137 0 -141
-3z"/>
<path d="M7453 6632 l-33 -3 0 -900 c0 -494 3 -899 8 -900 4 0 312 -1 685 -2
l677 -2 1 30 c1 38 1 295 0 315 -1 13 -62 15 -488 14 l-488 -2 0 188 0 187
417 0 c230 0 421 3 425 7 5 4 8 84 8 177 0 163 0 169 -20 170 -11 0 -201 1
-422 1 -222 0 -404 3 -404 7 -1 3 -2 84 -3 179 -1 111 2 172 9 173 5 1 222 2
480 3 l470 1 3 178 2 177 -57 1 c-315 2 -1245 3 -1270 1z"/>
<path d="M9429 6632 l-26 -3 0 -900 0 -899 31 -1 c43 -1 1194 -1 1234 0 l32 1
0 180 0 180 -450 0 -450 0 0 720 0 720 -42 1 c-223 3 -307 4 -329 1z"/>
<path d="M11313 6632 l-61 -3 0 -899 0 -900 22 -1 c28 0 1202 -1 1244 0 l32 1
0 180 0 180 -449 0 -449 0 0 715 c0 394 -2 718 -5 722 -7 6 -236 10 -334 5z"/>
<path d="M15465 6630 l-70 -5 0 -897 c0 -793 2 -898 15 -898 33 -1 308 -2 342
-1 l38 1 2 566 3 567 120 -159 c66 -87 125 -166 132 -174 7 -8 89 -116 183
-240 94 -124 177 -232 184 -241 13 -16 226 -296 237 -312 4 -5 84 -10 178 -11
l171 -1 0 903 0 902 -85 1 c-47 0 -101 1 -120 1 -19 0 -70 -1 -113 -1 l-77 -1
0 -550 c0 -407 -3 -546 -11 -537 -11 11 -102 130 -299 390 -50 66 -152 201
-228 300 -77 100 -175 230 -220 290 l-82 107 -65 1 c-36 0 -87 1 -115 2 -27 1
-82 0 -120 -3z"/>
</g>
</svg>
